<?xml version="1.0" standalone="no"?>
<!DOCTYPE svg PUBLIC "-//W3C//DTD SVG 20010904//EN"
 "http://www.w3.org/TR/2001/REC-SVG-20010904/DTD/svg10.dtd">
<svg version="1.0" xmlns="http://www.w3.org/2000/svg"
 width="1024.000000pt" height="1024.000000pt" viewBox="0 0 1024.000000 1024.000000"
 preserveAspectRatio="xMidYMid meet">
<metadata>
Created by potrace 1.14, written by Peter Selinger 2001-2017
</metadata>
<g transform="translate(0.000000,1024.000000) scale(0.100000,-0.100000)"
fill="#000000" stroke="none">
<path d="M5022 9239 c-109 -14 -184 -46 -419 -181 -126 -72 -322 -185 -438
-251 l-210 -120 -1055 -1 c-995 -1 -1058 -2 -1110 -19 -141 -48 -266 -147
-327 -262 -66 -125 -63 -71 -63 -1257 l0 -1075 23 -33 c33 -50 70 -72 126 -78
l51 -5 0 504 c0 470 2 507 19 545 22 49 38 60 246 185 l160 95 3 172 c3 195 3
195 -67 136 -49 -42 -81 -99 -90 -163 -5 -37 -10 -46 -26 -46 -27 0 -30 32
-11 98 18 64 71 128 150 182 30 20 57 44 60 51 3 8 12 11 20 8 9 -3 55 16 103
44 48 27 225 127 393 222 168 95 370 210 450 255 164 94 430 229 437 222 5 -6
-224 -147 -437 -267 -239 -136 -826 -472 -885 -507 l-50 -29 -3 -172 c-2 -115
1 -172 8 -172 6 0 135 74 288 164 661 390 947 557 1162 679 209 118 518 287
526 287 3 0 73 39 157 87 309 176 732 403 747 401 8 -2 15 -11 15 -20 0 -17
-71 -60 -550 -333 -99 -56 -214 -123 -255 -147 -218 -131 -720 -430 -895 -533
-110 -65 -258 -153 -330 -195 -146 -86 -481 -282 -715 -418 l-155 -90 -3 -81
c-2 -54 1 -81 8 -81 6 0 30 13 53 29 23 15 128 81 232 146 105 65 339 210 520
323 413 257 501 311 700 432 88 53 270 163 405 245 135 81 343 206 464 276
158 93 224 136 237 159 28 44 59 56 98 35 38 -19 57 -60 42 -92 -16 -34 -56
-56 -91 -49 -26 5 -67 -16 -298 -151 -430 -251 -567 -334 -1467 -887 -159 -98
-346 -213 -415 -256 -69 -42 -207 -125 -308 -185 l-182 -107 2 -497 3 -496 68
-3 67 -3 0 400 c0 455 0 458 75 514 23 18 104 68 179 112 76 44 278 164 449
266 l312 186 30 -18 c57 -35 104 -1 -515 -376 -212 -129 -395 -245 -408 -259
l-22 -25 0 -399 0 -399 28 -3 c16 -2 27 -9 27 -18 0 -9 -11 -16 -27 -18 l-28
-3 0 -185 0 -185 88 3 87 3 0 575 c0 529 1 577 17 601 15 21 435 279 928 570
52 31 262 156 465 279 408 246 902 539 1037 615 64 37 91 58 102 82 28 58 100
54 135 -8 29 -52 -22 -113 -89 -106 -18 1 -198 -102 -615 -352 -324 -195 -851
-511 -1170 -702 -319 -191 -607 -365 -640 -386 l-60 -38 -6 -100 c-3 -55 -5
-311 -5 -570 l1 -470 58 -3 c41 -2 57 -7 57 -17 0 -10 -16 -15 -57 -17 l-58
-3 0 -70 c0 -70 0 -70 30 -75 17 -3 30 -11 30 -20 0 -9 -13 -17 -30 -20 -29
-5 -30 -7 -30 -60 l0 -55 58 -3 c42 -2 57 -7 57 -17 0 -11 -13 -15 -54 -15
-58 0 -66 -7 -66 -60 0 -57 5 -60 102 -60 67 0 89 -3 86 -12 -3 -9 -35 -15
-94 -18 l-89 -5 -3 -87 -3 -87 38 -3 c49 -4 53 -32 6 -36 -40 -4 -45 -25 -41
-162 l3 -95 58 -3 c48 -3 57 -6 57 -22 0 -16 -9 -19 -57 -22 l-58 -3 -3 -225
c-2 -124 0 -244 3 -268 l6 -42 257 -154 c141 -84 412 -249 602 -366 190 -117
417 -256 505 -310 405 -247 874 -535 912 -562 79 -54 78 -43 81 -488 2 -217 0
-410 -3 -428 -3 -17 -16 -41 -27 -52 -39 -36 -77 -26 -190 48 -56 38 -245 157
-418 266 -173 109 -362 229 -420 266 -58 37 -152 97 -210 132 -151 94 -627
396 -1090 693 -314 201 -398 254 -564 357 -92 57 -161 108 -180 132 l-31 38 3
204 4 204 -70 0 -70 0 -4 -140 c-4 -164 -14 -187 -48 -108 -17 40 -24 76 -26
148 l-4 95 -92 6 c-51 4 -97 4 -102 1 -5 -3 -6 -45 -3 -93 3 -53 2 -89 -4 -89
-5 0 -9 -9 -9 -20 0 -11 7 -20 15 -20 8 0 24 -18 35 -40 24 -47 25 -60 5 -60
-8 0 -15 -9 -15 -20 0 -15 7 -20 30 -20 23 0 35 -9 60 -44 16 -25 30 -47 30
-50 0 -3 -23 -6 -52 -8 -81 -5 -71 -24 17 -33 l75 -7 0 -69 c0 -55 3 -69 15
-69 12 0 15 13 15 55 0 30 4 55 8 55 5 0 19 -11 32 -25 29 -31 150 -115 208
-144 47 -24 47 -41 1 -41 -19 0 -29 -5 -29 -15 0 -12 14 -15 67 -15 61 0 73
-4 145 -46 43 -25 78 -50 78 -55 0 -6 -61 -9 -151 -8 -194 1 -209 -10 -103
-77 30 -19 54 -39 54 -44 0 -5 -17 -10 -37 -12 -65 -5 -42 -23 37 -28 67 -5
82 -10 143 -48 37 -24 67 -48 67 -53 0 -5 -65 -9 -145 -9 -122 0 -145 -2 -145
-15 0 -13 26 -15 177 -15 l176 0 74 -46 c40 -25 71 -50 68 -55 -4 -5 -107 -9
-236 -9 -180 0 -230 -3 -227 -12 4 -10 69 -14 272 -16 l267 -2 87 -58 87 -57
-67 -3 c-49 -2 -68 -7 -68 -17 0 -10 24 -14 103 -17 l102 -3 130 -86 c72 -47
165 -107 207 -135 364 -232 368 -235 368 -264 0 -54 68 -85 112 -50 36 28 42
53 23 89 -18 36 -56 49 -97 33 -26 -10 -41 -2 -215 112 -104 67 -222 143 -263
169 -391 247 -840 545 -840 557 0 6 63 10 155 10 122 0 163 -3 186 -16 28 -14
129 -77 514 -319 77 -48 289 -181 470 -295 182 -114 393 -247 470 -295 77 -49
199 -125 270 -170 72 -45 207 -130 300 -190 456 -290 502 -311 648 -303 50 3
104 14 140 27 l57 22 0 615 c0 545 2 615 15 621 9 3 19 2 23 -2 4 -3 8 -274
10 -601 2 -327 7 -594 10 -594 4 0 24 11 44 25 l36 25 4 482 c3 480 3 483 26
534 13 28 38 65 55 82 43 41 340 226 727 454 122 71 264 143 255 127 -10 -15
-282 -193 -465 -304 -147 -89 -384 -237 -453 -283 -21 -14 -50 -46 -65 -71
l-27 -46 -3 -467 c-2 -359 0 -468 9 -468 14 0 96 46 122 68 16 15 18 43 17
404 -2 437 1 455 68 525 21 21 71 59 112 84 41 25 159 97 262 160 144 87 190
120 197 141 18 51 98 47 122 -6 9 -18 8 -31 -3 -52 -11 -24 -21 -30 -58 -34
-34 -4 -74 -24 -165 -84 -66 -44 -174 -113 -240 -154 -143 -89 -158 -101 -184
-158 -20 -42 -21 -62 -21 -399 0 -195 3 -355 6 -355 3 0 38 21 77 47 65 42
448 284 637 403 41 26 163 102 270 170 107 68 233 145 280 171 l84 49 763 0
c667 0 768 -2 801 -15 85 -36 121 -101 122 -217 0 -69 -2 -78 -24 -95 -36 -29
-66 -84 -66 -121 0 -54 35 -111 83 -133 54 -24 73 -24 122 4 28 15 47 37 64
70 21 43 23 53 12 88 -7 22 -26 56 -44 76 -31 35 -32 39 -32 132 0 82 -4 104
-26 152 -47 99 -116 151 -227 169 -74 13 -1414 12 -1591 0 -126 -9 -138 -11
-185 -41 -146 -91 -634 -383 -677 -404 -125 -64 -269 1 -269 120 0 85 -5 81
596 443 l250 152 0 132 c-1 127 0 136 28 192 26 53 38 64 125 121 99 64 354
221 499 307 68 41 82 53 82 74 0 34 51 84 85 84 64 0 106 -65 81 -125 -18 -42
-49 -59 -94 -51 -32 5 -56 -7 -254 -127 -120 -73 -266 -163 -326 -202 -138
-90 -155 -117 -160 -257 -3 -62 -1 -98 6 -98 5 0 45 17 88 38 l79 37 485 5
485 5 42 24 c22 13 51 37 63 53 44 60 47 87 55 471 l8 367 -311 0 c-208 0
-313 4 -317 11 -4 5 -4 21 -1 35 l6 24 306 0 c169 -1 308 1 310 3 2 2 5 87 7
188 l2 184 -315 5 c-280 4 -315 7 -318 21 -5 26 48 31 327 29 141 -1 268 -1
284 -1 l27 1 0 80 c0 77 -1 80 -29 94 -31 17 -41 34 -41 72 0 59 56 96 110 74
54 -22 67 -86 29 -134 -16 -20 -22 -46 -26 -106 l-6 -80 87 0 86 0 0 789 c0
647 2 791 13 800 8 6 17 8 20 4 4 -3 7 -363 7 -798 l0 -792 67 -6 c38 -3 71
-3 75 0 5 2 8 139 8 304 0 164 2 299 4 299 2 0 24 -20 48 -45 26 -26 59 -48
76 -51 l32 -6 2 -252 c3 -215 5 -251 18 -251 13 0 15 35 18 247 l2 247 38 11
c45 11 85 50 106 102 19 46 50 68 94 68 39 0 87 -41 98 -85 9 -38 -18 -91 -61
-116 l-35 -21 0 -396 0 -397 -53 -25 c-41 -20 -57 -35 -76 -71 l-25 -46 -200
-6 c-111 -4 -254 -7 -320 -7 l-118 0 3 -392 c2 -290 0 -404 -9 -435 -19 -65
-70 -124 -137 -158 l-59 -30 -490 -5 -491 -5 -65 -31 c-108 -52 -894 -530
-913 -556 -22 -30 -10 -73 26 -89 32 -14 34 -13 487 259 206 125 401 237 433
250 l59 23 486 1 c544 0 572 3 700 64 57 27 96 56 148 108 105 106 151 200
169 349 l6 47 232 -2 232 -3 3 -87 c2 -79 5 -88 22 -88 17 0 20 9 22 87 l3 88
63 3 c46 2 62 7 62 17 0 12 -15 15 -65 15 -45 0 -65 4 -66 13 -1 6 -2 21 -3
32 -2 32 -30 24 -36 -10 -5 -30 -6 -30 -70 -30 l-65 0 -3 180 c-2 165 -9 211
-29 191 -5 -4 -10 -89 -13 -189 l-5 -182 -140 0 -140 0 -3 268 -2 267 142 0
143 -1 20 -42 c52 -109 192 -118 267 -16 48 64 21 169 -54 218 l-38 24 0 382
0 383 35 26 c104 80 78 225 -47 266 -71 22 -129 -13 -166 -101 -34 -78 -109
-98 -189 -49 -86 52 -87 189 -2 252 17 13 53 23 98 28 113 12 196 75 248 185
28 59 28 63 31 278 3 184 1 217 -11 217 -12 0 -15 -35 -19 -202 -4 -196 -5
-205 -32 -263 -15 -33 -41 -75 -59 -94 -43 -45 -121 -81 -177 -81 -59 0 -129
-35 -155 -77 -11 -18 -23 -32 -27 -33 -5 0 -8 201 -8 448 0 749 -11 1524 -22
1567 -16 65 -57 135 -106 184 -31 31 -157 112 -377 244 -181 108 -373 222
-425 254 -52 32 -101 59 -107 61 -10 3 -13 -33 -13 -152 l0 -155 108 -64 c59
-35 185 -108 280 -162 l174 -98 39 23 c46 25 73 22 117 -15 35 -30 45 -69 27
-111 -39 -93 -172 -78 -191 22 -7 39 -1 34 -319 216 -110 63 -219 127 -242
141 l-43 27 0 179 0 179 -122 74 c-68 41 -145 87 -173 103 -85 47 -280 162
-495 291 -113 67 -333 198 -490 291 -157 94 -384 230 -505 303 -121 74 -251
148 -290 165 -111 51 -226 69 -343 54z m102 -210 c32 -25 35 -68 5 -95 -38
-34 -99 -5 -99 47 0 25 38 69 60 69 4 0 19 -9 34 -21z m451 -545 c0 -298 -3
-425 -11 -438 -18 -29 -22 50 -30 472 -5 284 -3 366 6 378 33 38 35 10 35
-412z m-222 -8 c6 -448 4 -434 64 -513 27 -37 243 -167 943 -570 207 -119 259
-182 268 -324 2 -42 0 -79 -5 -82 -5 -3 -23 5 -40 18 -24 19 -31 34 -36 74
-12 97 -44 135 -181 213 -50 28 -149 86 -221 128 -71 42 -251 148 -400 235
-349 204 -359 210 -396 253 -60 67 -59 63 -59 526 0 233 3 431 6 440 3 9 16
16 29 16 l22 0 6 -414z m762 -57 c176 -106 385 -230 465 -276 80 -47 188 -110
240 -140 52 -31 114 -68 137 -82 l43 -26 1 -125 c0 -69 3 -142 7 -163 8 -43
-40 -13 575 -364 l187 -108 0 -433 c0 -387 -2 -433 -16 -439 -9 -3 -20 0 -25
8 -5 8 -9 199 -9 424 l-1 410 -22 16 c-12 9 -155 91 -317 183 -162 93 -325
186 -362 208 l-68 39 0 159 0 158 -97 60 c-54 33 -147 88 -208 122 -60 35
-264 155 -453 267 -188 112 -349 206 -358 210 -12 5 -14 -30 -12 -268 l3 -273
130 -75 c225 -128 647 -372 730 -421 44 -26 220 -127 390 -225 347 -198 386
-225 433 -294 66 -97 65 -89 71 -608 7 -531 -1 -484 88 -532 32 -18 57 -42 78
-75 l30 -49 0 -221 0 -221 -28 -47 c-39 -66 -100 -101 -181 -102 l-61 -1 0 40
0 40 58 6 c62 7 88 24 115 74 12 23 17 68 20 188 2 87 1 173 -2 192 -9 45 -46
89 -105 121 -32 17 -56 40 -72 67 l-24 42 -5 480 c-5 512 -5 505 -57 574 -35
45 -88 78 -618 383 -570 328 -668 385 -877 510 l-168 100 0 339 c0 269 3 339
13 339 7 0 156 -86 332 -191z m-4245 -2 c7 -95 35 -155 89 -195 47 -35 79 -44
171 -51 66 -5 85 -9 85 -21 0 -12 -19 -16 -90 -21 -103 -7 -129 -16 -178 -58
-47 -42 -67 -89 -81 -188 -6 -46 -15 -85 -21 -86 -5 -1 -14 30 -18 68 -22 195
-87 265 -245 265 -46 0 -53 3 -50 18 3 13 17 18 69 23 80 7 148 43 185 98 19
29 28 61 36 132 13 118 15 126 30 111 6 -6 14 -49 18 -95z m250 53 c0 -27 3
-30 30 -30 19 0 30 -5 30 -14 0 -7 -13 -16 -30 -19 -25 -6 -30 -11 -30 -37 0
-39 -27 -41 -32 -3 -2 22 -9 29 -33 33 -18 3 -31 12 -33 23 -3 14 4 17 32 17
33 0 36 2 36 30 0 20 5 30 15 30 10 0 15 -10 15 -30z m845 -60 c0 -12 -21 -16
-114 -18 -111 -3 -141 4 -126 27 4 8 45 11 123 9 96 -2 117 -6 117 -18z m-370
-34 c96 -40 98 -169 3 -212 -75 -34 -158 17 -158 98 0 53 24 97 63 113 41 18
50 18 92 1z m2035 -36 c0 -5 10 -18 22 -30 l22 -20 -21 -19 c-12 -11 -23 -26
-26 -33 -3 -9 -15 -3 -37 19 l-33 31 29 31 c30 31 44 38 44 21z m-2854 -47
c-10 -10 -19 5 -10 18 6 11 8 11 12 0 2 -7 1 -15 -2 -18z m195 -26 c-1 -12
-15 -9 -19 4 -3 6 1 10 8 8 6 -3 11 -8 11 -12z m-244 -19 c-3 -8 -6 -5 -6 6
-1 11 2 17 5 13 3 -3 4 -12 1 -19z m2774 -44 c25 -12 28 -18 19 -29 -17 -20
-269 -172 -892 -539 l-267 -157 -31 16 c-16 8 -30 19 -30 23 0 13 179 122 870
530 107 63 215 127 240 142 54 34 53 34 91 14z m1721 -43 c29 -26 33 -36 34
-82 l0 -52 145 -87 c106 -64 153 -87 178 -87 41 0 63 -25 59 -68 -2 -22 -10
-32 -31 -39 -34 -12 -56 -1 -75 37 -14 30 -80 76 -220 156 -86 49 -95 52 -122
41 -82 -34 -172 60 -140 145 26 70 113 88 172 36z m-4552 -81 c0 -5 -5 -10
-11 -10 -5 0 -7 5 -4 10 3 6 8 10 11 10 2 0 4 -4 4 -10z m70 -30 c0 -5 -4 -10
-10 -10 -5 0 -10 5 -10 10 0 6 5 10 10 10 6 0 10 -4 10 -10z m230 -10 c0 -5
-4 -10 -10 -10 -5 0 -10 5 -10 10 0 6 5 10 10 10 6 0 10 -4 10 -10z m-190 -55
c0 -8 -4 -15 -10 -15 -5 0 -10 7 -10 15 0 8 5 15 10 15 6 0 10 -7 10 -15z
m3511 -313 c90 -53 210 -124 267 -156 56 -32 105 -62 107 -67 3 -4 -59 -46
-137 -92 -275 -162 -426 -247 -437 -247 -6 0 -39 17 -73 38 -35 20 -161 93
-281 162 -131 75 -217 129 -215 137 2 8 122 83 268 168 208 121 273 155 301
155 28 0 73 -22 200 -98z m1965 59 c26 -52 -34 -104 -76 -66 -22 20 -27 64 -8
83 21 21 71 10 84 -17z m-5617 -207 c1 -131 -9 -259 -20 -242 -11 16 -12 403
-1 438 9 34 19 -59 21 -196z m3080 -314 c174 -100 270 -160 269 -169 -3 -14
-187 -121 -414 -242 l-111 -59 -209 118 c-352 199 -364 206 -362 221 2 7 84
60 183 118 269 158 319 183 348 175 14 -4 147 -77 296 -162z m1251 62 c249
-143 330 -193 330 -201 0 -12 -558 -341 -577 -341 -11 0 -261 132 -423 222
-63 36 -116 71 -118 79 -1 9 39 37 105 76 60 34 191 109 292 167 135 78 190
105 205 100 12 -4 95 -49 186 -102z m-1954 -417 c322 -185 404 -235 404 -245
0 -5 -39 -31 -87 -58 -86 -49 -121 -69 -393 -227 -74 -43 -165 -96 -202 -117
l-67 -38 -183 109 c-101 59 -249 147 -330 195 -81 48 -150 91 -153 96 -7 11
-14 6 215 140 96 57 245 145 330 196 132 80 160 93 191 90 22 -2 121 -53 275
-141z m2599 40 c88 -51 241 -139 340 -195 99 -56 187 -108 195 -116 18 -18 30
-9 -244 -174 -122 -74 -263 -160 -314 -193 l-92 -59 -143 85 c-128 76 -288
169 -510 295 -51 28 -77 49 -75 59 2 8 111 80 243 160 329 200 405 242 424
235 9 -3 88 -47 176 -97z m-1376 -31 c234 -132 391 -227 391 -238 0 -10 -480
-285 -522 -299 -11 -4 -91 34 -220 105 -287 157 -340 188 -336 200 2 6 33 28
68 48 36 20 145 83 243 139 169 97 211 119 231 120 5 1 70 -33 145 -75z m2937
-42 c49 -39 55 -106 13 -151 -20 -21 -20 -34 -22 -319 -2 -343 -4 -351 -92
-409 -95 -63 -89 -28 -95 -598 l-5 -500 -24 -49 c-61 -124 -181 -181 -368
-174 l-78 3 0 40 0 40 121 5 c125 6 145 12 202 64 58 52 57 38 62 586 5 495 5
506 27 546 20 37 57 74 128 129 40 31 46 88 40 365 -6 231 -7 245 -27 258 -11
8 -26 30 -34 48 -27 64 24 134 96 134 19 0 45 -8 56 -18z m-3623 -337 c124
-65 450 -254 467 -271 18 -17 12 -23 -65 -67 -33 -18 -172 -99 -310 -179 -260
-151 -347 -198 -365 -198 -14 0 -498 285 -536 315 l-28 22 55 35 c43 27 559
329 644 376 32 18 49 14 138 -33z m1360 -77 c92 -54 193 -111 225 -127 31 -16
95 -52 142 -81 47 -29 100 -62 118 -72 l32 -20 0 -194 c0 -107 3 -194 8 -194
4 1 34 20 67 43 l60 43 5 147 c3 94 9 150 16 155 7 4 78 48 158 97 81 50 220
137 309 194 89 57 169 106 178 108 12 3 18 -4 23 -27 10 -55 7 -719 -4 -740
-12 -22 -122 -100 -141 -100 -9 0 -10 25 -5 100 14 222 19 520 9 520 -6 0 -62
-33 -125 -72 -62 -40 -155 -98 -205 -128 l-92 -55 -1 -237 c0 -131 2 -238 4
-238 3 0 32 16 65 36 l61 36 0 132 c0 91 4 137 13 148 18 24 118 89 127 83 11
-7 0 -418 -12 -432 -13 -16 -353 -223 -367 -223 -7 0 -11 59 -13 170 l-3 170
-67 -45 -68 -45 0 -175 0 -174 -107 -66 c-154 -94 -142 -78 -144 -178 -1 -48
0 -89 2 -91 4 -3 79 44 500 310 449 284 562 353 570 348 11 -7 12 -454 0 -472
-5 -8 -71 -51 -147 -96 l-139 -81 -3 -93 c-1 -50 0 -92 3 -92 3 0 66 38 140
85 75 47 140 83 145 80 16 -10 13 -877 -2 -897 -7 -8 -121 -80 -253 -158 -132
-79 -276 -165 -320 -191 -44 -27 -86 -49 -93 -49 -9 0 -12 118 -12 525 0 377
-3 525 -11 525 -12 0 -393 -237 -668 -417 -96 -62 -178 -113 -182 -113 -5 0
-10 213 -11 474 l-3 474 -70 -47 -70 -47 -3 -364 c-1 -258 -6 -367 -14 -377
-15 -18 -115 -83 -306 -199 l-152 -92 -78 42 c-42 24 -138 79 -212 123 -75 43
-143 82 -153 86 -25 10 -77 -39 -77 -73 0 -25 20 -39 260 -184 144 -86 266
-156 273 -155 7 0 84 44 172 98 136 83 160 101 160 122 0 13 -5 23 -11 22 -7
-1 -83 -45 -170 -98 -87 -52 -161 -95 -164 -95 -4 0 -15 9 -24 19 -17 18 -16
19 11 25 16 4 127 67 248 141 121 73 223 131 227 129 4 -3 8 -75 8 -160 0 -85
2 -154 6 -154 3 0 31 17 62 38 31 22 145 95 252 164 425 273 545 348 555 348
3 0 5 -193 5 -429 l0 -430 -32 -24 c-53 -39 -403 -247 -417 -247 -9 0 -12 41
-11 170 1 93 -1 170 -4 170 -10 1 -69 -32 -98 -53 -28 -21 -28 -21 -29 -146
-1 -69 -4 -151 -7 -181 l-7 -54 -210 -129 c-115 -71 -270 -167 -342 -213 -73
-46 -143 -89 -157 -95 -22 -10 -46 2 -253 126 -125 75 -312 189 -415 253
l-188 117 0 557 0 557 -197 117 c-109 64 -253 150 -319 190 -67 41 -124 74
-128 74 -3 0 -6 -106 -6 -236 0 -191 -3 -235 -13 -231 -7 3 -78 45 -158 94
-79 49 -205 125 -279 168 -74 43 -165 98 -202 122 l-68 43 0 459 c0 253 4 462
8 465 10 6 16 2 626 -358 253 -149 464 -273 468 -274 5 -2 7 144 6 324 l-3
328 -55 32 c-30 18 -58 33 -62 34 -5 0 -8 -101 -8 -224 0 -124 -4 -227 -9
-230 -4 -3 -71 32 -147 78 -76 46 -287 170 -469 276 -181 106 -336 197 -343
203 -9 7 -12 91 -10 381 3 331 5 371 19 374 9 2 63 -26 120 -61 57 -35 185
-111 284 -167 99 -57 206 -121 237 -142 l57 -38 3 -147 3 -147 58 -39 c32 -21
62 -35 67 -32 6 3 10 35 10 71 0 35 4 64 9 64 8 0 270 -148 342 -193 18 -11
19 -32 21 -417 l3 -405 55 -37 c30 -21 61 -38 68 -38 9 0 12 92 12 426 0 402
1 426 18 419 9 -3 199 -110 421 -237 l403 -231 33 16 c34 16 511 302 625 375
63 39 65 40 73 20 4 -12 6 -295 5 -629 -2 -380 1 -609 7 -609 5 0 50 27 100
59 49 33 203 130 340 216 138 87 258 164 268 173 23 20 26 188 3 179 -8 -3
-101 -60 -208 -127 -169 -107 -222 -141 -350 -224 l-28 -18 0 245 0 246 75 53
c41 29 113 77 160 106 l85 53 0 85 c0 66 -3 83 -12 78 -7 -5 -49 -31 -93 -59
-99 -63 -191 -115 -205 -115 -6 0 -10 80 -10 225 0 225 0 226 -22 234 -26 10
-567 311 -700 390 -49 29 -88 58 -88 66 0 8 21 26 48 41 26 15 110 64 187 110
213 124 312 174 332 167 10 -4 93 -51 186 -105z m-588 -468 c202 -116 352
-203 423 -247 23 -14 23 -15 6 -34 -10 -11 -43 -34 -73 -51 -31 -18 -137 -82
-236 -143 -99 -62 -217 -133 -262 -160 l-82 -47 -43 24 c-206 116 -627 363
-641 376 -14 13 -15 18 -5 28 19 18 661 384 674 384 5 0 113 -59 239 -130z
m-2607 -232 c7 -7 12 -21 12 -33 0 -44 -44 -59 -75 -25 -17 18 -17 21 -1 45
18 27 45 32 64 13z m-284 -14 c19 -18 19 -20 6 -45 -6 -10 -19 -19 -30 -19
-16 0 -40 26 -40 44 0 8 31 36 40 36 5 0 16 -7 24 -16z m5746 -715 c0 -176 -1
-190 -17 -187 -16 3 -18 21 -21 178 -1 96 0 180 2 187 3 7 12 13 21 13 13 0
15 -26 15 -191z m-5126 -621 c56 -33 203 -121 329 -196 l227 -136 0 -228 0
-229 -22 12 c-88 46 -659 387 -680 406 -16 14 -18 39 -18 240 l0 224 31 -17
c18 -9 77 -43 133 -76z m886 -51 l175 -102 3 -450 c1 -248 0 -456 -3 -463 -5
-13 -18 -6 -237 131 l-128 80 0 453 c0 250 4 454 8 454 4 0 86 -46 182 -103z
m4103 -87 c34 0 47 -4 47 -14 0 -10 -14 -16 -42 -18 -41 -3 -43 -5 -46 -38 -4
-55 -10 -64 -27 -50 -9 7 -15 29 -15 51 l0 39 -45 0 c-29 0 -46 -5 -47 -12 0
-7 -2 -17 -3 -23 -2 -5 -3 -22 -4 -37 -1 -18 -7 -28 -16 -28 -14 0 -21 18 -27
70 -3 23 -7 25 -48 25 l-45 0 -3 -48 c-3 -39 -6 -48 -20 -45 -12 2 -18 16 -22
48 l-5 45 -58 5 c-31 3 -58 9 -60 15 -4 19 58 24 248 20 105 -2 211 -4 238 -5z
m346 -617 c0 -256 -9 -356 -22 -273 -9 56 -19 485 -11 514 3 14 12 26 20 26
12 0 14 -45 13 -267z m-489 41 c5 -37 7 -39 43 -42 30 -3 37 -7 35 -20 -2 -12
-15 -18 -41 -20 -35 -3 -37 -5 -37 -38 0 -28 -4 -34 -21 -34 -17 0 -20 5 -17
33 3 31 1 32 -37 37 -54 7 -55 34 -2 38 33 3 37 6 37 32 0 68 32 80 40 14z
m-192 -240 c4 -25 -20 -47 -42 -38 -16 6 -22 45 -9 58 14 14 48 1 51 -20z
m196 -75 c13 -7 30 -25 37 -42 34 -82 -95 -137 -136 -57 -18 35 -8 70 27 94
27 19 39 20 72 5z m-306 -71 c-4 -12 -119 -23 -144 -14 -34 13 2 26 72 26 53
0 74 -4 72 -12z m102 -98 c0 -20 -5 -20 -152 -18 -106 2 -153 7 -155 15 -5 14
40 19 200 21 101 2 107 1 107 -18z m-5439 -171 c38 -23 69 -45 69 -50 0 -5
-70 -9 -155 -9 l-155 0 -65 43 c-35 23 -65 45 -65 50 0 4 68 7 151 7 l151 0
69 -41z m2883 -755 c18 -17 22 -69 6 -79 -6 -4 -10 -117 -10 -305 0 -188 4
-301 10 -305 18 -11 11 -63 -11 -78 -26 -19 -56 -11 -76 19 -14 22 -14 26 1
49 14 21 16 65 16 319 0 186 -4 297 -10 301 -13 8 -13 51 0 76 13 23 53 25 74
3z"/>
<path d="M2502 8317 c-57 -60 7 -149 79 -111 40 20 53 57 34 93 -24 47 -78 56
-113 18z"/>
<path d="M6104 8114 c-23 -34 -9 -75 29 -88 22 -8 31 -6 52 14 29 27 31 47 9
78 -22 31 -69 30 -90 -4z"/>
<path d="M3278 6647 c-36 -23 -69 -45 -73 -48 -6 -6 245 -160 438 -269 42 -24
77 -48 77 -52 0 -22 55 0 188 76 474 271 444 252 406 266 -16 6 -51 22 -77 36
l-48 25 -107 -65 c-161 -96 -288 -166 -303 -166 -7 0 -105 54 -219 120 -114
66 -208 120 -211 119 -2 0 -34 -19 -71 -42z"/>
<path d="M5965 6652 c-6 -5 -31 -17 -57 -26 -26 -10 -50 -21 -53 -26 -3 -4 16
-21 43 -38 112 -70 522 -302 533 -302 7 0 22 8 33 19 12 10 98 65 191 123 227
140 305 190 305 198 0 3 -21 16 -46 29 l-47 22 -51 -32 c-83 -52 -347 -210
-360 -215 -7 -3 -44 14 -81 37 -135 82 -379 219 -390 219 -6 0 -15 -4 -20 -8z"/>
<path d="M3963 6192 c-65 -37 -80 -49 -70 -58 6 -7 89 -56 182 -110 94 -53
187 -108 208 -121 22 -14 46 -22 54 -19 8 3 100 59 204 123 l190 117 -23 18
c-13 10 -53 33 -89 53 l-66 35 -119 -71 c-106 -63 -121 -69 -139 -58 -46 30
-239 139 -244 138 -4 -1 -43 -22 -88 -47z"/>
<path d="M3020 6068 l0 -233 158 -91 c86 -50 246 -144 355 -208 108 -64 200
-116 202 -116 3 0 5 36 5 79 l0 80 -92 51 c-51 29 -184 106 -295 173 l-203
121 0 68 c0 54 3 68 15 68 8 0 82 -40 164 -90 83 -49 152 -90 155 -90 4 0 6
34 6 75 l0 75 -42 21 c-24 12 -120 68 -215 125 -95 56 -181 108 -193 114 -20
11 -20 9 -20 -222z"/>
<path d="M5537 6193 c-53 -32 -97 -61 -97 -65 0 -4 17 -16 38 -27 57 -29 289
-168 354 -212 l57 -39 88 58 c48 32 141 92 206 132 l118 75 -23 18 c-27 23
-113 67 -128 67 -6 0 -54 -25 -106 -55 -98 -56 -113 -62 -129 -46 -14 12 -263
151 -272 151 -5 0 -52 -26 -106 -57z"/>
<path d="M6230 5781 c-25 -15 -66 -40 -92 -55 l-48 -27 0 -100 0 -101 33 21
c17 12 60 38 94 59 34 20 64 46 67 57 9 30 7 175 -1 175 -5 0 -28 -13 -53 -29z"/>
<path d="M4354 5085 c2 -195 7 -359 10 -364 6 -9 111 -71 121 -71 3 0 5 160 5
355 l0 355 -62 40 c-33 22 -65 40 -70 40 -5 0 -6 -157 -4 -355z"/>
<path d="M5620 5316 c-36 -25 -114 -73 -175 -109 -60 -36 -145 -87 -187 -114
l-78 -48 -1 -255 c0 -140 -3 -352 -5 -470 -3 -118 -2 -230 1 -248 7 -38 2 -40
148 55 l97 64 0 418 0 418 58 31 c31 17 91 53 132 81 l75 51 5 85 c3 47 3 85
0 85 -3 0 -34 -20 -70 -44z"/>
<path d="M3019 5288 c-2 -35 -2 -179 1 -321 l5 -258 220 -131 c121 -71 226
-132 233 -135 10 -4 12 29 10 157 l-3 163 -89 55 c-101 62 -106 61 -106 -30 0
-40 -4 -58 -12 -58 -7 0 -36 16 -65 36 l-53 36 -2 152 c-1 83 -3 189 -3 236
l0 84 -60 37 c-33 21 -63 38 -66 38 -4 1 -8 -27 -10 -61z"/>
<path d="M7038 5264 l-78 -46 0 -84 c0 -46 3 -84 7 -84 14 0 144 82 149 94 3
7 4 47 2 89 l-3 76 -77 -45z"/>
<path d="M4621 4930 l-2 -350 62 -39 c35 -22 67 -37 71 -35 5 3 8 116 8 251
-1 135 1 247 4 250 2 3 33 -10 68 -29 l63 -33 3 -330 c1 -181 0 -336 -3 -343
-3 -9 -30 3 -87 39 -110 69 -178 109 -183 109 -3 0 -5 -38 -5 -84 l0 -83 210
-122 c115 -66 212 -121 215 -121 7 0 6 796 -2 924 l-6 107 -56 36 c-30 19
-100 60 -156 91 -55 30 -119 68 -142 84 -23 15 -46 28 -51 28 -6 0 -10 -136
-11 -350z"/>
<path d="M3290 5107 l0 -74 228 -136 c125 -75 394 -238 597 -362 l370 -224 3
80 c2 50 -2 86 -8 95 -7 7 -76 50 -153 95 -142 83 -467 274 -823 486 -105 62
-196 113 -202 113 -8 0 -12 -24 -12 -73z"/>
<path d="M6748 5073 l-66 -44 -1 -465 c-1 -296 3 -464 9 -464 12 0 123 70 132
84 9 12 6 937 -2 935 -3 -1 -35 -21 -72 -46z"/>
<path d="M7033 4589 l-73 -50 0 -218 0 -218 -137 -84 -138 -84 -3 -83 c-2 -45
-1 -82 2 -82 7 0 104 59 276 167 l155 98 3 303 c1 166 -1 302 -5 301 -5 0 -41
-22 -80 -50z"/>
<path d="M6082 3977 c-111 -72 -299 -195 -417 -272 -118 -77 -221 -141 -229
-143 -13 -3 -16 16 -18 121 l-3 124 -120 -77 -120 -78 -3 -391 c-1 -215 1
-391 4 -391 4 0 106 64 228 142 122 77 238 152 259 165 l37 23 0 95 c0 52 -2
95 -4 95 -3 0 -69 -42 -148 -93 -167 -109 -213 -137 -222 -137 -4 0 -6 32 -4
71 l3 71 190 124 c267 174 613 394 630 401 12 4 15 -8 15 -65 l0 -71 -40 -22
-40 -23 0 -114 0 -114 48 28 c26 15 73 45 105 66 l57 39 0 279 c0 154 -1 280
-2 280 -2 0 -94 -60 -206 -133z"/>
<path d="M4350 3668 c0 -200 3 -372 6 -384 3 -11 31 -36 62 -55 96 -57 442
-269 532 -325 47 -30 89 -54 93 -54 4 0 7 174 7 388 l-1 387 -117 70 c-64 38
-155 94 -200 123 -121 77 -113 78 -110 -14 l3 -78 122 -77 c68 -42 129 -82
138 -89 13 -10 15 -48 15 -231 0 -162 -3 -219 -12 -219 -6 0 -99 54 -205 121
l-193 120 0 65 c0 45 4 64 13 64 7 0 63 -31 125 -70 62 -38 117 -70 122 -70 6
0 10 33 10 79 l0 79 -125 77 c-68 42 -128 82 -132 88 -5 7 -10 75 -13 152 l-5
140 -55 37 c-30 21 -61 38 -67 38 -10 0 -13 -79 -13 -362z"/>
<path d="M4657 5753 l-78 -46 48 -30 c42 -27 318 -189 428 -253 l40 -23 220
132 c265 160 265 160 265 169 0 4 -32 24 -71 43 l-70 36 -42 -24 c-23 -13 -95
-56 -160 -96 -120 -72 -135 -78 -152 -62 -13 12 -337 201 -344 201 -3 0 -41
-21 -84 -47z"/>
<path d="M3010 4150 c0 -72 2 -81 23 -93 121 -75 447 -267 452 -267 3 0 5 37
3 82 l-3 82 -230 137 c-126 76 -233 138 -237 139 -5 0 -8 -36 -8 -80z"/>
<path d="M3867 4158 c-5 -35 2 -565 8 -584 3 -10 107 -74 120 -74 3 0 4 141 3
312 l-3 313 -55 32 c-30 18 -57 33 -61 33 -4 0 -9 -15 -12 -32z"/>
<path d="M2233 9028 c3 -10 172 -14 793 -16 434 -1 816 1 849 5 l60 7 -40 7
c-22 4 -406 8 -853 8 -647 1 -813 -2 -809 -11z"/>
<path d="M4036 9031 c-7 -10 60 -25 74 -16 6 4 8 11 5 16 -8 12 -72 12 -79 0z"/>
<path d="M5968 9023 c7 -3 16 -2 19 1 4 3 -2 6 -13 5 -11 0 -14 -3 -6 -6z"/>
<path d="M6110 9020 c0 -5 7 -10 15 -10 8 0 15 5 15 10 0 6 -7 10 -15 10 -8 0
-15 -4 -15 -10z"/>
<path d="M6420 9020 c0 -5 9 -10 20 -10 11 0 20 5 20 10 0 6 -9 10 -20 10 -11
0 -20 -4 -20 -10z"/>
<path d="M1935 8965 c-31 -30 -33 -77 -5 -105 29 -29 87 -27 120 5 l26 25 852
1 c834 0 852 1 852 20 0 19 -17 19 -851 19 l-851 0 -28 30 c-36 38 -81 40
-115 5z"/>
<path d="M3862 8908 c5 -15 100 -22 176 -13 91 11 57 25 -64 25 -88 0 -115 -3
-112 -12z"/>
<path d="M6093 8908 c2 -9 34 -13 112 -13 78 0 110 4 113 13 3 9 -24 12 -113
12 -89 0 -116 -3 -112 -12z"/>
<path d="M6412 8908 c4 -10 167 -14 754 -18 576 -4 754 -8 771 -18 45 -26 53
-50 53 -167 0 -60 -4 -115 -8 -120 -4 -6 -19 -16 -34 -24 -30 -15 -58 -66 -58
-104 0 -37 41 -91 80 -103 111 -36 196 93 119 180 -16 19 -38 38 -48 41 -15 4
-17 20 -16 134 0 116 -2 132 -21 158 -11 15 -32 34 -45 40 -35 19 -1553 19
-1547 1z"/>
<path d="M2293 8802 c-29 -2 -43 -8 -43 -18 0 -12 63 -14 434 -14 297 0 437 3
441 11 4 6 5 12 3 14 -5 5 -780 12 -835 7z"/>
<path d="M8193 8794 c-8 -20 8 -48 30 -52 22 -5 42 35 26 54 -16 19 -48 18
-56 -2z"/>
<path d="M6400 8765 c0 -12 15 -15 78 -15 83 0 122 7 122 21 0 5 -45 9 -100 9
-82 0 -100 -3 -100 -15z"/>
<path d="M6766 8699 c-31 -34 -56 -64 -56 -67 0 -7 114 -127 121 -127 8 0 109
118 109 127 0 9 -102 128 -110 128 -4 0 -33 -27 -64 -61z m113 -69 c0 -3 -11
-18 -25 -34 l-26 -29 -24 29 c-29 36 -29 38 -2 75 l23 30 27 -33 c15 -18 27
-35 27 -38z"/>
<path d="M8488 8713 c-3 -35 -6 -38 -35 -41 -18 -2 -33 -7 -33 -12 0 -5 15
-10 33 -12 27 -2 33 -8 35 -30 2 -16 7 -28 12 -28 5 0 10 12 12 28 2 22 8 28
36 30 17 2 32 7 32 12 0 5 -15 10 -32 12 -30 3 -33 6 -36 41 -2 20 -7 37 -12
37 -5 0 -10 -17 -12 -37z"/>
<path d="M7722 8718 c-16 -16 -15 -33 3 -48 21 -18 55 -3 55 25 0 32 -35 46
-58 23z"/>
<path d="M7344 8661 c-102 -46 -129 -179 -54 -265 40 -45 79 -60 143 -53 l52
5 122 -127 c130 -136 106 -119 583 -433 113 -75 231 -156 262 -182 62 -50 136
-147 168 -218 52 -118 51 -103 50 -968 0 -883 -2 -863 54 -827 14 10 34 32 43
50 17 30 18 84 18 802 0 765 -1 770 -22 840 -58 184 -144 275 -452 475 -529
345 -555 363 -632 441 -41 42 -93 97 -114 123 -35 43 -37 48 -22 64 75 83 46
226 -56 273 -53 23 -91 24 -143 0z"/>
<path d="M7050 8646 c0 -29 24 -40 44 -20 20 20 9 44 -20 44 -19 0 -24 -5 -24
-24z"/>
<path d="M8692 8288 c-7 -7 -12 -21 -12 -32 0 -27 -125 -140 -146 -132 -11 4
-14 21 -12 73 3 62 1 68 -17 68 -17 0 -19 -7 -20 -70 0 -90 -14 -94 -93 -23
-43 38 -61 61 -63 83 -4 27 -8 30 -39 30 -33 0 -35 -2 -35 -35 0 -29 4 -36 26
-40 33 -6 150 -110 147 -130 -3 -12 -19 -14 -84 -11 -83 3 -99 -3 -88 -33 5
-12 16 -15 48 -11 119 16 116 16 123 -2 5 -12 -10 -32 -56 -75 -54 -49 -62
-60 -51 -73 19 -23 38 -18 54 13 18 35 92 106 99 95 2 -4 8 -45 12 -90 5 -61
11 -83 21 -83 11 0 14 18 14 80 0 106 14 113 79 43 25 -28 52 -58 59 -67 11
-13 17 -14 28 -5 21 17 17 48 -8 58 -32 13 -110 90 -105 104 3 11 59 12 153 4
13 -1 20 5 22 21 3 21 1 22 -87 22 -71 0 -91 3 -91 14 0 14 133 126 150 126
13 0 50 37 50 49 0 16 -30 41 -49 41 -9 0 -22 -5 -29 -12z"/>
<path d="M7390 8190 c0 -73 2 -80 20 -80 18 0 20 7 20 80 0 73 -2 80 -20 80
-18 0 -20 -7 -20 -80z"/>
<path d="M7995 8257 c-3 -7 -5 -51 -3 -98 3 -71 6 -84 21 -87 16 -3 17 5 15
94 -2 67 -7 99 -15 102 -7 2 -15 -3 -18 -11z"/>
<path d="M8924 8086 c-11 -28 1 -51 27 -54 29 -3 44 18 34 49 -8 23 -53 26
-61 5z"/>
<path d="M1152 7163 c3 -488 5 -558 18 -558 13 0 15 68 15 555 0 521 -1 555
-18 558 -16 3 -17 -27 -15 -555z"/>
<path d="M1275 7539 c-3 -8 -4 -330 -3 -715 3 -692 3 -699 25 -746 11 -25 40
-66 62 -91 l41 -44 0 -106 0 -106 -142 -3 c-127 -3 -143 -5 -146 -20 -3 -16 9
-18 137 -18 82 0 142 -4 146 -10 3 -6 50 -10 106 -10 l99 0 0 124 0 124 -52 7
c-65 9 -142 49 -174 90 -13 17 -34 53 -46 81 l-23 49 -3 695 c-3 634 -7 751
-27 699z"/>
<path d="M8925 7396 c-20 -15 -17 -44 7 -59 12 -8 21 -7 32 2 36 30 -1 85 -39
57z"/>
<path d="M1870 7087 c-90 -55 -142 -93 -157 -116 l-23 -34 0 -488 0 -489 64 0
65 0 3 408 3 408 30 60 c22 43 50 75 103 119 l72 60 0 77 c0 56 -4 78 -12 77
-7 0 -74 -37 -148 -82z"/>
<path d="M9002 7115 c2 -14 8 -26 13 -26 6 0 11 12 13 26 2 18 -1 25 -13 25
-12 0 -15 -7 -13 -25z"/>
<path d="M8866 7011 c-11 -18 6 -91 21 -91 11 0 13 11 11 47 -3 44 -19 66 -32
44z"/>
<path d="M9000 6971 c0 -39 4 -51 16 -51 12 0 14 10 12 47 -4 66 -28 70 -28 4z"/>
<path d="M1961 6894 c-23 -20 -52 -55 -64 -78 -22 -40 -22 -50 -25 -448 l-3
-408 74 0 74 0 6 48 c3 26 6 244 7 485 1 369 -1 437 -12 437 -8 0 -33 -16 -57
-36z"/>
<path d="M9000 6775 c0 -60 3 -75 15 -75 12 0 15 15 15 75 0 60 -3 75 -15 75
-12 0 -15 -15 -15 -75z"/>
<path d="M8860 6601 c0 -77 4 -122 11 -127 22 -13 28 21 23 131 -3 87 -7 111
-19 113 -13 3 -15 -15 -15 -117z"/>
<path d="M9007 6623 c-13 -13 -7 -53 8 -53 10 0 15 10 15 30 0 29 -9 38 -23
23z"/>
<path d="M1150 6485 c0 -20 4 -26 18 -23 9 2 17 12 17 23 0 11 -8 21 -17 23
-14 3 -18 -3 -18 -23z"/>
<path d="M9000 6240 c0 -224 2 -260 15 -260 13 0 15 36 15 260 0 224 -2 260
-15 260 -13 0 -15 -36 -15 -260z"/>
<path d="M8867 6393 c-4 -3 -7 -116 -7 -250 0 -227 1 -244 18 -241 16 3 17 24
20 251 2 202 0 247 -11 247 -8 0 -17 -3 -20 -7z"/>
<path d="M1144 6235 c-8 -19 3 -35 26 -35 19 0 34 25 24 41 -8 14 -44 10 -50
-6z"/>
<path d="M1154 5936 c-11 -29 1 -51 28 -54 22 -3 29 2 34 22 3 14 3 30 -1 35
-9 16 -55 13 -61 -3z"/>
<path d="M1690 5796 l0 -125 32 -3 c46 -4 49 -28 4 -28 -36 0 -36 0 -36 -44 0
-25 3 -47 8 -49 4 -3 33 -2 65 0 l57 5 0 184 0 184 -65 0 -65 0 0 -124z"/>
<path d="M1870 5735 c0 -141 3 -185 13 -186 19 -1 132 2 133 4 1 1 5 84 9 185
l7 182 -81 0 -81 0 0 -185z"/>
<path d="M2070 5742 c0 -99 4 -182 9 -187 6 -6 37 -8 70 -7 l61 4 0 184 0 184
-70 0 -70 0 0 -178z"/>
<path d="M8863 5734 c-8 -21 13 -42 28 -27 13 13 5 43 -11 43 -6 0 -13 -7 -17
-16z"/>
<path d="M1398 5618 c-3 -23 -6 -23 -150 -26 -123 -2 -148 -5 -148 -17 0 -8 6
-15 13 -15 6 0 119 -2 250 -5 l237 -6 0 46 0 45 -99 0 c-96 0 -100 -1 -103
-22z"/>
<path d="M8856 5607 c-9 -37 -64 -107 -102 -129 -37 -22 -44 -38 -16 -38 47 0
135 94 157 168 5 17 2 22 -13 22 -12 0 -22 -9 -26 -23z"/>
<path d="M1400 5435 l0 -75 100 0 100 0 0 75 0 75 -100 0 -100 0 0 -75z"/>
<path d="M1690 5435 l0 -75 65 0 65 0 0 75 0 75 -65 0 -65 0 0 -75z"/>
<path d="M1877 5504 c-4 -4 -7 -38 -7 -76 l0 -69 78 3 77 3 0 70 0 70 -70 3
c-39 1 -74 0 -78 -4z"/>
<path d="M2074 5497 c-3 -8 -4 -41 -2 -73 l3 -59 68 -3 68 -3 -3 73 -3 73 -63
3 c-46 2 -64 -1 -68 -11z"/>
<path d="M2317 5503 c-4 -3 -7 -37 -7 -75 l0 -68 84 0 84 0 7 65 c3 35 4 69 0
75 -7 11 -157 14 -168 3z"/>
<path d="M1125 5425 c-30 -29 -32 -58 -5 -85 40 -40 110 -11 110 45 0 30 -32
65 -60 65 -12 0 -32 -11 -45 -25z"/>
<path d="M1400 5255 l0 -64 -117 -3 c-97 -2 -118 -6 -118 -18 0 -12 21 -16
118 -18 l117 -3 0 -44 0 -44 53 -6 c28 -4 72 -5 97 -3 l45 3 3 133 3 132 -101
0 -100 0 0 -65z"/>
<path d="M1688 5283 c-3 -21 -6 -77 -7 -126 -2 -100 -1 -101 84 -102 l50 0 3
133 3 132 -65 0 -64 0 -4 -37z"/>
<path d="M1872 5263 l3 -58 71 -3 71 -3 6 52 c4 29 4 56 1 60 -3 5 -39 9 -80
9 l-75 0 3 -57z"/>
<path d="M2074 5306 c-3 -7 -4 -33 -2 -57 l3 -44 65 0 65 0 3 58 3 57 -66 0
c-47 0 -67 -4 -71 -14z"/>
<path d="M2312 5263 l3 -58 85 0 85 0 0 55 0 55 -88 3 -88 3 3 -58z"/>
<path d="M1878 5164 c-5 -4 -8 -79 -8 -166 l0 -158 74 0 73 0 7 156 c4 86 6
157 4 159 -8 8 -144 16 -150 9z"/>
<path d="M2077 5164 c-4 -4 -7 -79 -7 -166 l0 -158 70 0 70 0 -2 163 -3 162
-60 3 c-34 2 -64 0 -68 -4z"/>
<path d="M2317 5163 c-4 -3 -7 -78 -7 -165 l0 -158 84 0 84 0 7 75 c4 41 5 81
2 89 -4 10 -24 16 -58 18 -74 4 -79 28 -6 28 63 0 70 8 60 75 l-6 45 -77 0
c-42 0 -80 -3 -83 -7z"/>
<path d="M1122 5038 c-29 -29 -1 -98 40 -98 22 0 48 33 48 61 0 32 -17 49 -50
49 -14 0 -31 -5 -38 -12z"/>
<path d="M1400 4780 l0 -240 100 0 100 0 0 240 0 240 -100 0 -100 0 0 -240z"/>
<path d="M1690 4930 l0 -90 65 0 65 0 0 90 0 90 -65 0 -65 0 0 -90z"/>
<path d="M1260 4860 c0 -13 7 -20 20 -20 13 0 20 7 20 20 0 13 -7 20 -20 20
-13 0 -20 -7 -20 -20z"/>
<path d="M1685 4708 c-4 -51 -5 -109 -3 -128 l3 -35 68 -3 67 -3 0 131 0 130
-64 0 -64 0 -7 -92z"/>
<path d="M1874 4787 c-2 -7 -3 -65 -2 -128 l3 -114 73 -3 72 -3 0 131 0 130
-70 0 c-49 0 -72 -4 -76 -13z"/>
<path d="M2074 4787 c-2 -7 -3 -65 -2 -128 l3 -114 68 -3 67 -3 0 131 0 130
-65 0 c-45 0 -67 -4 -71 -13z"/>
<path d="M2310 4670 l0 -130 84 0 83 0 5 104 c3 57 3 115 1 130 -5 26 -7 26
-89 26 l-84 0 0 -130z"/>
<path d="M1147 4713 c-12 -12 -7 -40 9 -54 14 -11 19 -10 35 9 10 13 15 30 12
37 -5 15 -44 21 -56 8z"/>
<path d="M8121 4666 c-16 -19 -9 -41 18 -55 25 -14 54 11 49 43 -4 26 -49 34
-67 12z"/>
<path d="M1262 4593 c5 -26 38 -29 38 -4 0 15 -6 21 -21 21 -14 0 -19 -5 -17
-17z"/>
<path d="M1400 4450 l0 -50 100 0 100 0 0 50 0 50 -100 0 -100 0 0 -50z"/>
<path d="M1687 4494 c-4 -4 -7 -27 -7 -51 l0 -43 71 0 70 0 -3 48 -3 47 -60 3
c-34 2 -64 0 -68 -4z"/>
<path d="M1877 4493 c-4 -3 -7 -26 -7 -50 l0 -43 75 0 75 0 0 50 0 50 -68 0
c-38 0 -72 -3 -75 -7z"/>
<path d="M2074 4486 c-3 -8 -4 -29 -2 -48 3 -33 4 -33 58 -36 51 -3 75 -16 64
-34 -3 -4 -32 -8 -65 -8 l-59 0 0 -453 c0 -420 1 -455 18 -469 20 -18 106 -68
115 -68 4 0 6 253 5 563 l-3 562 -63 3 c-47 2 -64 -1 -68 -12z"/>
<path d="M2315 4488 c-3 -7 -4 -278 -3 -603 l3 -590 94 -63 c51 -35 99 -61
105 -59 7 2 12 42 14 109 l3 106 -31 22 c-73 52 -80 149 -16 207 29 27 44 33
81 33 37 0 52 -6 81 -33 29 -26 37 -42 41 -80 5 -39 1 -54 -20 -86 -15 -22
-35 -42 -47 -46 -19 -6 -20 -14 -20 -144 0 -95 4 -142 13 -153 12 -15 111 -81
342 -227 72 -45 186 -118 255 -163 69 -44 332 -211 585 -370 700 -441 800
-505 928 -590 66 -43 123 -76 128 -72 5 3 9 26 9 52 l-1 47 -162 106 c-193
127 -711 451 -1457 912 -129 80 -257 159 -284 176 -26 17 -58 31 -71 31 -48 0
-73 70 -37 103 28 26 59 20 96 -15 19 -18 67 -53 108 -77 214 -127 1004 -616
1437 -890 80 -50 152 -91 161 -91 38 0 40 20 38 276 l-3 249 -65 43 c-72 47
-354 221 -970 597 -223 136 -461 282 -530 324 -69 43 -154 95 -190 116 -166
98 -377 232 -405 256 l-30 27 -5 284 -5 283 -83 3 c-60 2 -84 -1 -87 -10z
m610 -1064 c8 -4 22 -19 30 -34 8 -16 46 -47 87 -73 40 -24 165 -103 278 -174
113 -71 293 -185 400 -253 107 -68 284 -181 393 -252 110 -70 209 -128 221
-128 30 0 66 -35 66 -65 0 -29 -24 -55 -51 -55 -11 0 -97 51 -192 113 -94 62
-273 178 -397 256 -124 79 -292 186 -375 239 -82 52 -220 141 -305 197 -85 57
-169 106 -187 109 -38 9 -55 28 -55 61 0 47 42 76 87 59z m467 -134 c13 -16
77 -63 143 -103 66 -40 217 -133 335 -206 334 -207 458 -283 554 -342 48 -30
109 -72 134 -95 l46 -41 7 -144 c4 -86 3 -149 -2 -155 -15 -19 -45 -23 -71
-10 -22 11 -23 15 -23 146 l0 135 -92 60 c-51 33 -216 137 -368 230 -151 94
-370 230 -486 303 -115 72 -216 132 -222 132 -27 0 -57 32 -57 60 0 62 62 81
102 30z"/>
<path d="M8834 4486 c-11 -28 0 -91 16 -91 11 0 16 14 18 53 2 42 0 52 -13 52
-9 0 -18 -6 -21 -14z"/>
<path d="M1267 4484 c-16 -16 -7 -44 14 -44 15 0 20 5 17 22 -3 22 -19 33 -31
22z"/>
<path d="M1400 4310 l0 -51 97 3 97 3 8 35 c12 58 9 60 -102 60 l-100 0 0 -50z"/>
<path d="M1682 4313 l3 -48 65 0 65 0 3 48 3 47 -71 0 -71 0 3 -47z"/>
<path d="M1877 3988 c3 -419 2 -413 77 -465 22 -16 47 -33 54 -37 9 -6 12 84
12 433 l0 441 -72 0 -73 0 2 -372z"/>
<path d="M8458 4352 l-68 -3 0 -154 c0 -125 -3 -155 -14 -155 -20 0 -26 46
-26 187 l0 124 -82 -3 -82 -3 1 -30 c0 -16 1 -101 2 -187 l1 -158 175 0 175 0
0 189 c0 105 -3 191 -7 193 -5 2 -38 2 -75 0z"/>
<path d="M1260 4324 c0 -33 33 -30 38 4 3 17 -2 22 -17 22 -16 0 -21 -6 -21
-26z"/>
<path d="M8704 4306 c-8 -22 3 -49 19 -43 6 2 12 14 12 27 0 27 -22 39 -31 16z"/>
<path d="M8832 4288 c2 -13 10 -23 18 -23 8 0 16 10 18 23 3 17 -2 22 -18 22
-16 0 -21 -5 -18 -22z"/>
<path d="M1267 4214 c-16 -16 -7 -44 14 -44 15 0 20 5 17 22 -3 22 -19 33 -31
22z"/>
<path d="M1400 4175 l0 -45 100 0 99 0 7 34 c3 19 3 39 -1 45 -4 7 -46 11
-106 11 l-99 0 0 -45z"/>
<path d="M1680 4175 l0 -46 68 3 67 3 3 43 3 42 -70 0 -71 0 0 -45z"/>
<path d="M8700 4155 c0 -28 24 -34 34 -9 8 20 -1 34 -20 34 -8 0 -14 -10 -14
-25z"/>
<path d="M8832 4138 c3 -30 8 -43 18 -43 10 0 16 13 18 43 3 37 1 42 -18 42
-19 0 -21 -5 -18 -42z"/>
<path d="M1260 4061 c0 -26 27 -34 39 -12 12 21 5 31 -21 31 -11 0 -18 -7 -18
-19z"/>
<path d="M1400 4035 l0 -45 99 0 99 0 4 41 c2 22 2 42 -1 45 -2 2 -49 4 -103
4 l-98 0 0 -45z"/>
<path d="M1680 4035 l0 -46 68 3 67 3 3 43 3 42 -70 0 -71 0 0 -45z"/>
<path d="M1160 4041 c0 -21 5 -31 16 -31 11 0 14 8 12 27 -4 39 -28 42 -28 4z"/>
<path d="M8704 4025 c-3 -8 -3 -19 1 -25 11 -18 25 -11 25 15 0 27 -17 34 -26
10z"/>
<path d="M1270 3924 c0 -31 23 -28 28 4 2 15 -2 22 -12 22 -11 0 -16 -9 -16
-26z"/>
<path d="M1167 3923 c-13 -13 -7 -53 8 -53 10 0 15 10 15 30 0 29 -9 38 -23
23z"/>
<path d="M1272 3775 c4 -71 22 -71 26 0 2 45 0 55 -13 55 -13 0 -15 -10 -13
-55z"/>
<path d="M1162 3753 c4 -39 28 -42 28 -4 0 21 -5 31 -16 31 -11 0 -14 -8 -12
-27z"/>
<path d="M8703 3744 c-8 -21 13 -42 28 -27 13 13 5 43 -11 43 -6 0 -13 -7 -17
-16z"/>
<path d="M1164 3626 c-7 -20 2 -46 16 -46 13 0 13 47 0 55 -6 3 -13 -1 -16 -9z"/>
<path d="M1270 3610 c0 -20 5 -30 15 -30 10 0 15 10 15 30 0 20 -5 30 -15 30
-10 0 -15 -10 -15 -30z"/>
<path d="M8703 3604 c-8 -21 13 -42 28 -27 13 13 5 43 -11 43 -6 0 -13 -7 -17
-16z"/>
<path d="M8981 3598 c-6 -16 -5 -27 4 -37 27 -28 70 14 45 44 -18 22 -39 18
-49 -7z"/>
<path d="M1164 3496 c-4 -11 -19 -16 -46 -16 -35 0 -39 -2 -36 -22 3 -20 9
-23 41 -22 l37 1 0 -48 c0 -46 -2 -49 -26 -49 -32 0 -30 -33 3 -38 22 -3 23
-8 25 -135 2 -100 6 -132 16 -132 10 0 14 32 18 129 2 72 6 131 7 133 2 1 14
4 27 5 20 3 25 -3 33 -32 38 -146 125 -230 240 -230 16 0 27 5 27 14 0 8 -22
18 -61 25 -51 10 -68 20 -104 56 -45 44 -70 102 -63 145 3 24 6 25 96 28 68 2
92 6 89 15 -2 8 -35 13 -95 15 l-91 3 -3 77 c-2 57 -7 77 -17 77 -10 0 -14
-19 -15 -75 l-1 -75 -32 -3 c-29 -3 -33 0 -34 20 -3 125 -5 142 -16 145 -7 3
-16 -2 -19 -11z"/>
<path d="M8700 3460 c0 -15 5 -20 18 -18 9 2 17 10 17 18 0 8 -8 16 -17 18
-13 2 -18 -3 -18 -18z"/>
<path d="M1446 3201 c-9 -15 23 -36 36 -23 5 5 7 15 4 21 -9 13 -33 14 -40 2z"/>
<path d="M8703 3195 c-7 -20 2 -29 21 -22 9 4 13 13 10 22 -8 19 -23 19 -31 0z"/>
<path d="M8833 3194 c-7 -18 11 -39 26 -30 17 11 13 46 -4 46 -9 0 -18 -7 -22
-16z"/>
<path d="M1626 3094 c-3 -9 -6 -270 -6 -580 l0 -564 -30 0 c-20 0 -30 -5 -30
-15 0 -10 10 -15 30 -15 29 0 30 -1 30 -50 l0 -50 -100 0 c-98 0 -100 0 -106
25 -3 14 -3 63 1 108 6 79 8 83 35 96 40 17 75 76 74 123 -2 76 -82 138 -159
124 -47 -9 -81 -39 -100 -90 -14 -37 -15 -51 -5 -80 13 -39 58 -83 96 -92 24
-6 25 -7 22 -108 l-3 -101 -44 -5 c-62 -7 -65 -28 -4 -32 l48 -3 3 -73 c2 -63
5 -73 20 -70 14 3 17 15 18 63 0 33 1 66 2 73 2 9 29 12 101 12 l98 0 13 -45
c17 -62 61 -117 113 -143 l44 -22 919 0 c505 0 924 4 930 8 6 4 16 17 22 29
10 17 8 26 -7 45 l-19 23 -907 5 -907 5 -34 37 c-19 21 -34 42 -34 48 0 5 24
10 55 10 42 0 55 3 55 15 0 12 -13 15 -60 15 l-60 0 0 623 c0 342 -3 632 -6
645 -5 19 -13 22 -54 22 -34 0 -50 -4 -54 -16z"/>
<path d="M8805 3070 c-11 -5 -48 -9 -83 -9 -46 -1 -63 -4 -59 -13 3 -9 33 -13
104 -14 87 0 108 -4 162 -28 79 -35 131 -45 131 -23 0 8 -12 18 -27 22 -16 3
-62 22 -104 41 -80 36 -92 38 -124 24z"/>
<path d="M1267 3014 c-4 -4 -7 -25 -7 -46 0 -34 -3 -38 -25 -38 -16 0 -25 -6
-25 -15 0 -13 20 -15 142 -13 100 2 143 7 145 15 3 9 -22 13 -94 15 l-98 3 -5
39 c-5 38 -19 54 -33 40z"/>
<path d="M8655 2950 c-11 -17 5 -32 21 -19 8 6 14 15 14 20 0 12 -27 11 -35
-1z"/>
<path d="M8750 2891 c-63 -66 -102 -88 -182 -105 -16 -4 -28 -13 -28 -22 0
-24 72 -10 152 30 l66 33 21 -28 c12 -15 21 -35 21 -43 0 -18 -59 -65 -94 -74
-14 -4 -25 -11 -23 -17 6 -26 110 18 151 64 11 12 26 19 35 17 55 -15 91 -16
91 -3 0 7 -29 22 -70 36 -38 12 -70 26 -70 31 0 5 -12 16 -26 23 l-27 14 31
34 30 33 79 -37 c85 -40 113 -45 113 -22 0 8 -5 15 -11 15 -6 0 -50 19 -98 42
-47 23 -88 43 -91 44 -3 1 -34 -28 -70 -65z"/>
<path d="M8570 2935 c0 -8 7 -15 15 -15 8 0 15 7 15 15 0 8 -7 15 -15 15 -8 0
-15 -7 -15 -15z"/>
<path d="M1110 2775 c0 -13 14 -15 98 -13 126 4 124 22 -3 26 -81 2 -95 0 -95
-13z"/>
<path d="M1407 2784 c-18 -18 -3 -25 48 -22 30 2 56 8 58 13 2 11 -95 20 -106
9z"/>
<path d="M8395 2780 c-8 -13 3 -30 20 -30 14 0 27 24 18 34 -10 9 -31 7 -38
-4z"/>
<path d="M1110 2635 c0 -13 27 -15 184 -15 101 0 191 3 200 6 46 18 -3 24
-184 24 -171 0 -200 -2 -200 -15z"/>
<path d="M1270 2520 c0 -11 -8 -23 -17 -26 -44 -14 -48 -18 -21 -22 20 -2 30
-11 34 -28 8 -31 24 -31 24 1 0 18 5 25 20 25 11 0 20 5 20 10 0 6 -9 10 -20
10 -15 0 -20 7 -20 25 0 14 -4 25 -10 25 -5 0 -10 -9 -10 -20z"/>
<path d="M2007 2493 c-3 -5 -2 -15 3 -22 10 -17 43 -6 38 12 -6 15 -34 22 -41
10z"/>
<path d="M2160 2485 c0 -8 9 -15 20 -15 11 0 20 7 20 15 0 8 -9 15 -20 15 -11
0 -20 -7 -20 -15z"/>
<path d="M2317 2494 c-14 -14 -7 -25 13 -22 12 2 21 8 21 13 0 12 -24 18 -34
9z"/>
<path d="M4778 2261 c-3 -232 -4 -240 -25 -263 -13 -14 -23 -27 -23 -30 0 -8
111 -78 122 -78 4 0 8 123 8 274 l0 274 -26 31 c-51 61 -53 53 -56 -208z"/>
<path d="M1867 2443 c-4 -3 -7 -42 -7 -85 0 -77 0 -78 25 -78 25 0 25 1 25 85
0 76 -2 85 -18 85 -10 0 -22 -3 -25 -7z"/>
<path d="M2010 2346 c0 -10 9 -16 21 -16 24 0 21 23 -4 28 -10 2 -17 -3 -17
-12z"/>
<path d="M2160 2345 c0 -8 9 -15 20 -15 11 0 20 7 20 15 0 8 -9 15 -20 15 -11
0 -20 -7 -20 -15z"/>
<path d="M2317 2354 c-9 -10 2 -24 19 -24 8 0 14 7 14 15 0 15 -21 21 -33 9z"/>
<path d="M2470 2346 c0 -15 24 -28 34 -19 13 14 5 33 -14 33 -11 0 -20 -6 -20
-14z"/>
<path d="M2624 2349 c-3 -6 -1 -16 4 -21 13 -13 45 8 36 23 -7 12 -31 11 -40
-2z"/>
<path d="M8540 2316 c0 -33 -2 -36 -29 -36 -17 0 -33 -4 -36 -10 -6 -10 0 -12
40 -14 14 -1 21 -9 23 -28 4 -37 18 -36 26 2 5 25 10 30 36 30 16 0 30 5 30
10 0 6 -13 10 -29 10 -26 0 -30 4 -33 32 -4 46 -28 49 -28 4z"/>
<path d="M7048 2323 c-30 -34 -31 -61 -4 -88 28 -28 50 -31 86 -10 21 12 101
14 455 14 354 0 434 -2 455 -14 37 -21 66 -18 96 10 26 24 32 25 155 25 108 0
129 2 129 15 0 13 -21 15 -130 15 -124 0 -130 1 -154 25 -28 28 -77 33 -96 10
-18 -22 -876 -23 -906 0 -26 20 -68 19 -86 -2z"/>
<path d="M2010 2210 c0 -15 5 -20 18 -18 9 2 17 10 17 18 0 8 -8 16 -17 18
-13 2 -18 -3 -18 -18z"/>
<path d="M2154 2219 c-9 -15 12 -33 30 -26 9 4 16 13 16 22 0 17 -35 21 -46 4z"/>
<path d="M2310 2216 c0 -19 14 -28 34 -20 25 10 19 34 -9 34 -15 0 -25 -6 -25
-14z"/>
<path d="M2465 2220 c-9 -15 3 -30 25 -30 18 0 34 23 23 34 -10 10 -41 7 -48
-4z"/>
<path d="M2620 2210 c0 -16 5 -21 23 -18 12 2 22 10 22 18 0 8 -10 16 -22 18
-18 3 -23 -2 -23 -18z"/>
<path d="M2775 2220 c-4 -6 -5 -13 -4 -15 2 -2 49 -5 104 -7 84 -2 100 -1 100
12 0 12 -19 16 -97 18 -62 2 -99 -1 -103 -8z"/>
<path d="M6904 2115 c-9 -6 -14 -20 -12 -31 3 -19 19 -19 703 -19 674 0 700 1
703 19 2 10 -1 23 -8 30 -16 16 -1364 18 -1386 1z"/>
<path d="M1882 2078 c4 -10 136 -14 606 -16 531 -2 602 0 602 13 0 13 -73 15
-606 15 -480 0 -605 -3 -602 -12z"/>
<path d="M6570 1961 c-7 -15 -6 -23 6 -35 14 -14 108 -16 921 -14 833 3 907 4
916 20 8 12 7 21 -2 32 -12 14 -105 16 -922 16 -887 0 -909 0 -919 -19z"/>
<path d="M1867 1953 c-4 -3 -7 -10 -7 -15 0 -4 273 -8 606 -8 480 0 605 3 602
13 -4 9 -134 13 -600 15 -327 1 -598 -1 -601 -5z"/>
<path d="M3200 1941 c0 -11 21 -19 38 -14 21 8 13 23 -13 23 -14 0 -25 -4 -25
-9z"/>
<path d="M7978 1819 c-23 -13 -23 -46 0 -58 14 -7 25 -6 40 5 26 18 27 27 6
48 -18 19 -23 19 -46 5z"/>
<path d="M1957 1814 c-4 -4 -4 -11 -1 -15 3 -5 210 -9 460 -9 397 0 454 2 454
15 0 13 -57 15 -453 15 -250 0 -457 -3 -460 -6z"/>
<path d="M3480 1800 c0 -5 5 -10 10 -10 6 0 10 5 10 10 0 6 -4 10 -10 10 -5 0
-10 -4 -10 -10z"/>
<path d="M8513 1790 c-44 -10 -76 -33 -109 -75 l-26 -35 -299 0 c-286 0 -298
1 -304 19 -3 11 -22 34 -41 50 -66 58 -166 36 -200 -45 -11 -26 -20 -33 -46
-36 -45 -4 -49 -28 -5 -28 29 0 38 -6 56 -35 34 -58 118 -80 176 -46 35 20 48
21 353 21 l317 0 20 -36 c39 -74 129 -108 203 -79 139 56 147 245 12 313 -47
23 -56 24 -107 12z m-817 -105 c29 -44 -40 -99 -82 -64 -20 16 -18 66 4 78 25
16 63 9 78 -14z"/>
<path d="M6407 1774 c-11 -12 3 -24 29 -24 15 0 24 6 24 15 0 15 -40 21 -53 9z"/>
<path d="M6174 1645 c-4 -8 -4 -22 0 -30 5 -13 81 -15 628 -13 l623 3 3 28 3
27 -626 0 c-547 0 -626 -2 -631 -15z"/>
<path d="M3917 1644 c-4 -4 -7 -18 -7 -31 0 -28 23 -27 28 1 4 20 -11 40 -21
30z"/>
<path d="M3767 1634 c-9 -10 12 -46 24 -39 14 9 11 45 -4 45 -8 0 -17 -3 -20
-6z"/>
<path d="M4048 1634 c-10 -9 4 -45 16 -41 17 5 20 47 3 47 -7 0 -16 -3 -19 -6z"/>
<path d="M3777 1504 c-4 -4 -7 -18 -7 -31 0 -28 23 -27 28 1 4 20 -11 40 -21
30z"/>
<path d="M3914 1496 c-8 -21 3 -49 16 -41 5 3 10 15 10 25 0 25 -18 36 -26 16z"/>
<path d="M5906 1494 c-9 -8 -16 -19 -16 -23 0 -28 35 -31 316 -29 l289 3 3 22
c6 38 -31 43 -313 43 -226 0 -266 -2 -279 -16z"/>
<path d="M6935 1502 c-23 -6 -31 -13 -33 -35 l-3 -27 360 0 c337 0 361 1 370
18 24 45 12 47 -336 49 -180 0 -341 -2 -358 -5z"/>
<path d="M7997 1503 c-4 -3 -7 -19 -7 -34 0 -26 -3 -28 -47 -31 -35 -2 -48 -7
-48 -18 0 -11 13 -16 47 -18 45 -3 47 -5 50 -35 5 -49 36 -49 40 0 l3 38 50 0
c39 0 50 4 53 18 3 14 -5 17 -52 17 l-56 0 0 35 c0 33 -16 46 -33 28z"/>
<path d="M4045 1490 c-8 -13 14 -42 26 -34 5 3 9 14 9 25 0 20 -24 26 -35 9z"/>
<path d="M4185 1490 c-8 -14 3 -30 21 -30 8 0 14 9 14 20 0 21 -24 28 -35 10z"/>
<path d="M1585 1460 c-3 -5 -3 -14 0 -20 4 -6 175 -10 481 -10 467 0 474 0
474 20 0 20 -7 20 -474 20 -306 0 -477 -4 -481 -10z"/>
<path d="M4394 1365 c-16 -24 -16 -27 1 -45 25 -28 63 -26 76 4 26 56 -43 92
-77 41z"/>
<path d="M3770 1335 c0 -16 6 -25 15 -25 9 0 15 9 15 25 0 16 -6 25 -15 25 -9
0 -15 -9 -15 -25z"/>
<path d="M3912 1338 c2 -13 8 -23 13 -23 6 0 11 10 13 23 2 15 -2 22 -13 22
-11 0 -15 -7 -13 -22z"/>
<path d="M4050 1340 c0 -11 7 -20 15 -20 8 0 15 9 15 20 0 11 -7 20 -15 20 -8
0 -15 -9 -15 -20z"/>
<path d="M4192 1338 c2 -13 8 -23 13 -23 6 0 11 10 13 23 2 15 -2 22 -13 22
-11 0 -15 -7 -13 -22z"/>
<path d="M5709 1344 c-17 -21 0 -48 34 -52 18 -2 27 2 32 18 13 41 -38 68 -66
34z"/>
<path d="M1940 1329 c-9 -15 -8 -24 1 -35 18 -22 53 -13 57 15 6 40 -39 56
-58 20z"/>
<path d="M7700 1330 c-9 -16 -8 -25 1 -36 26 -32 84 0 62 34 -16 26 -50 27
-63 2z"/>
<path d="M2590 1315 c0 -13 8 -16 38 -13 20 2 37 8 37 13 0 6 -17 11 -37 13
-30 3 -38 0 -38 -13z"/>
<path d="M2765 1320 c-19 -30 23 -36 168 -24 55 5 77 11 77 20 0 11 -26 14
-119 14 -69 0 -122 -4 -126 -10z"/>
<path d="M3104 1319 c-3 -6 -2 -15 3 -20 12 -12 53 1 53 17 0 17 -46 19 -56 3z"/>
<path d="M6287 1323 c-20 -20 16 -23 253 -23 224 0 260 2 260 15 0 13 -35 15
-253 15 -140 0 -257 -3 -260 -7z"/>
<path d="M7112 1313 c3 -16 15 -18 118 -14 63 2 117 5 119 6 1 2 0 8 -4 14 -4
7 -51 11 -121 11 -105 0 -115 -2 -112 -17z"/>
<path d="M7445 1320 c-10 -17 5 -30 33 -30 42 0 72 11 72 26 0 17 -95 20 -105
4z"/>
<path d="M2468 1313 c7 -3 16 -2 19 1 4 3 -2 6 -13 5 -11 0 -14 -3 -6 -6z"/>
</g>
</svg>
