<?xml version="1.0" standalone="no"?>
<!DOCTYPE svg PUBLIC "-//W3C//DTD SVG 20010904//EN"
 "http://www.w3.org/TR/2001/REC-SVG-20010904/DTD/svg10.dtd">
<svg version="1.0" xmlns="http://www.w3.org/2000/svg"
 width="260.000000pt" height="260.000000pt" viewBox="0 0 260.000000 260.000000"
 preserveAspectRatio="xMidYMid meet">
<metadata>
Created by potrace 1.14, written by Peter Selinger 2001-2017
</metadata>
<g transform="translate(0.000000,260.000000) scale(0.100000,-0.100000)"
fill="#000000" stroke="none">
<path d="M1095 2213 c-38 -327 -98 -611 -249 -1180 -47 -177 -86 -329 -86
-337 0 -12 11 -16 44 -16 40 0 47 4 66 34 33 54 115 123 256 217 71 47 140 92
153 99 l24 12 -39 34 c-21 18 -44 33 -50 34 -6 0 -65 -22 -133 -49 -96 -39
-123 -47 -127 -36 -5 12 188 994 217 1107 9 34 14 39 64 54 30 10 55 20 55 24
0 6 -158 60 -177 60 -7 0 -15 -26 -18 -57z"/>
<path d="M1348 2191 c-70 -26 -130 -50 -134 -53 -5 -6 -54 -221 -54 -240 0 -3
26 20 57 53 63 67 120 106 133 93 5 -5 31 -85 59 -179 29 -93 97 -315 153
-493 81 -256 99 -325 88 -332 -24 -15 -190 48 -397 150 -72 36 -126 59 -120
51 28 -33 270 -240 352 -301 175 -129 292 -187 399 -197 79 -7 126 8 166 53
61 70 32 138 -165 389 -134 170 -189 250 -259 367 -111 189 -207 454 -192 532
3 17 20 51 36 76 31 47 39 81 18 79 -7 -1 -70 -22 -140 -48z"/>
<path d="M1386 1790 c6 -46 54 -549 54 -570 0 -11 -15 -23 -37 -31 l-37 -14
60 -28 c34 -15 91 -38 129 -52 60 -23 67 -24 61 -8 -4 10 -57 176 -117 368
-120 384 -120 385 -113 335z"/>
<path d="M1520 842 c0 -15 -3 -44 -6 -64 l-7 -38 101 0 c83 0 100 3 96 14 -3
8 -19 20 -36 27 -16 7 -56 29 -89 50 l-59 39 0 -28z"/>
<path d="M893 613 c-35 -12 -43 -19 -43 -40 0 -16 5 -23 13 -20 29 11 57 18
58 15 1 -2 4 -55 8 -118 8 -154 26 -143 26 15 l0 120 40 0 c38 0 41 3 37 35
-3 15 -91 11 -139 -7z"/>
<path d="M1107 613 c-41 -14 -48 -20 -43 -37 3 -12 6 -64 6 -116 0 -52 4 -100
8 -107 6 -10 19 -9 56 2 27 8 66 15 88 15 28 0 38 4 38 16 0 14 -11 16 -75 12
-57 -2 -75 0 -75 10 0 16 41 32 103 39 38 5 47 9 47 26 0 21 -5 21 -111 1 -35
-6 -36 -5 -42 31 -3 20 -4 42 -1 50 7 17 87 37 120 29 23 -6 25 -4 22 17 -3
21 -9 24 -48 26 -25 1 -67 -5 -93 -14z"/>
<path d="M1390 611 c-53 -28 -95 -102 -95 -167 0 -69 22 -94 82 -94 50 0 123
33 123 55 0 12 -10 10 -47 -10 -58 -30 -63 -31 -97 -4 -21 17 -26 29 -26 66 0
39 5 50 39 84 30 31 46 39 74 39 29 0 36 -4 39 -22 4 -20 6 -19 23 15 17 33
17 39 5 47 -24 16 -83 11 -120 -9z"/>
<path d="M1706 562 l7 -69 -34 -6 c-19 -3 -49 -9 -66 -13 l-33 -6 0 70 c0 52
-4 71 -15 75 -8 4 -16 3 -18 -1 -2 -4 -1 -61 2 -127 5 -107 8 -120 25 -123 16
-4 18 0 13 27 -8 36 8 48 78 57 l45 7 0 -37 c0 -24 5 -39 15 -43 9 -3 17 -4
19 -2 2 2 1 60 -3 129 -5 108 -8 125 -24 128 -16 3 -17 -3 -11 -66z"/>
</g>
</svg>
